<svg width="16" height="16" viewBox="0 0 16 16" fill="none" xmlns="http://www.w3.org/2000/svg">
<path d="M13.9526 8.12043C13.9316 8.12043 13.9106 8.11808 13.889 8.11338C12.123 7.71861 10.4253 7.08298 8.8425 6.22235C6.75332 5.0868 4.90275 3.58819 3.3363 1.76531C2.5312 1.68306 1.49798 1.54501 0.247737 1.35291C0.0884666 1.32824 -0.0206308 1.17844 0.00328891 1.01806C0.027792 0.857686 0.176562 0.747244 0.335832 0.771917C1.38363 0.933468 2.20974 1.04508 2.85965 1.12145C2.6613 0.780729 2.54987 0.441178 2.73947 0.195621C2.88766 0.00469687 3.33805 -0.217362 4.69156 0.44294C5.85137 1.00866 5.76911 1.34704 5.73819 1.47452C5.64893 1.84168 5.16236 1.8875 4.29542 1.84285C4.25808 1.84109 4.21958 1.83874 4.18049 1.83639C5.61159 3.40079 7.26905 4.69966 9.11904 5.70539C10.654 6.53958 12.3009 7.157 14.0144 7.53943C14.1719 7.57468 14.2711 7.73153 14.2361 7.88956C14.2058 8.02643 14.0856 8.11984 13.9514 8.11984L13.9526 8.12043ZM3.62625 1.20311C4.32168 1.26832 4.72306 1.27713 4.95525 1.26597C4.79248 1.15494 4.54512 1.01336 4.21899 0.871197C3.7266 0.656188 3.40047 0.589805 3.24645 0.584518C3.27796 0.672049 3.35555 0.834187 3.54808 1.10971C3.57375 1.14084 3.6 1.17198 3.62625 1.20311Z" fill="#3F5EAB"/>
<path d="M13.3501 5.13093C13.466 5.13093 13.5599 5.03636 13.5599 4.91971C13.5599 4.80306 13.466 4.7085 13.3501 4.7085C13.2343 4.7085 13.1404 4.80306 13.1404 4.91971C13.1404 5.03636 13.2343 5.13093 13.3501 5.13093Z" fill="#405FAB"/>
<path d="M3.06966 16.0002C2.72195 16.0002 2.29665 15.8868 2.0312 15.7711C1.73483 15.6413 1.56797 15.4867 1.5213 15.2988L1.51605 15.2788L1.51372 15.2582C1.46646 14.7977 1.64673 13.8448 2.04812 12.4267L2.05687 12.4002C2.32699 11.7041 2.78963 11.2559 3.16184 10.8952C3.38062 10.6831 3.56964 10.4998 3.65016 10.3318C3.98911 9.61981 3.99262 9.30141 3.9617 9.22151C3.3742 8.68927 3.15601 8.41258 2.7803 7.56664C2.37949 6.61437 2.06912 4.64404 2.4565 3.86213C2.58835 3.59601 2.77446 3.50026 2.90689 3.46677L2.92906 3.46149L2.95182 3.45914C3.40338 3.41801 3.79368 3.82512 3.94419 4.49659L3.94886 4.5242C3.96169 4.62465 3.97395 4.73862 3.98678 4.86199C4.05387 5.4888 4.14605 6.34767 4.45876 6.86757C4.6507 7.20066 5.01766 7.64889 5.20785 7.81749C6.52927 6.81058 8.09514 6.46046 9.98655 6.74655C10.0291 6.7301 10.1919 6.58735 10.3553 6.10387C10.4889 5.7091 10.57 5.22973 10.5618 4.88196V4.87726V4.87256C10.5676 4.22753 10.7543 3.49321 10.8342 3.2077C11.1131 2.21255 11.3033 2.12502 11.4888 2.12032C11.8208 2.11033 11.8867 2.47044 11.983 3.01384C12.0116 3.17539 12.0559 3.42565 12.0962 3.55372C12.1008 3.55372 12.1061 3.55254 12.1107 3.55195C12.1207 3.52846 12.1312 3.50261 12.1417 3.47793C12.5296 2.54681 12.6568 2.31007 12.9223 2.31712C13.253 2.32476 13.2513 2.68604 13.2501 2.85993C13.249 3.04792 13.2478 3.36279 13.3802 3.45561C13.4765 3.52258 13.5658 3.56664 13.6597 3.61305C13.7682 3.66651 13.8808 3.72173 14.0033 3.81102C14.2921 4.01663 14.4945 4.23752 14.6188 4.48425C14.7524 4.75154 14.9368 4.80265 15.1911 4.87432C15.4268 4.94071 15.7203 5.02295 15.9286 5.31433L15.9443 5.33665L15.956 5.36191C16.1602 5.80368 15.6001 6.60145 15.3732 6.84231L15.3632 6.85229C15.0774 7.12781 14.5774 7.19831 14.1363 7.26058C13.9788 7.2829 13.7542 7.31462 13.6463 7.35046C13.6305 7.54726 13.6503 8.01663 13.6626 8.31271C13.676 8.62818 13.6871 8.90076 13.6772 9.04939C13.6533 9.40539 13.5949 9.78782 13.5926 9.80368L13.5844 9.84128C13.3837 10.5345 13.0774 10.8646 12.5611 11.3522C12.5734 11.502 12.6971 11.9602 13.3773 13.3472C13.4065 13.406 13.4281 13.4512 13.4415 13.4788C13.8685 14.2913 14.106 14.4252 14.1579 14.4458C14.1801 14.4528 14.2063 14.4593 14.2361 14.4669C14.4041 14.5104 14.6573 14.5756 14.8195 14.753L14.8434 14.783C15.0114 15.0232 14.9817 15.4956 14.8393 15.7135L14.8242 15.7347C14.7221 15.8651 14.5395 15.9344 14.2128 15.9661C14.2034 15.9673 13.2455 16.0495 12.9969 15.8345L12.9829 15.8216C12.5366 15.3822 12.1317 14.921 11.7794 14.4516C11.4853 14.0604 11.2228 13.6574 11.0005 13.2538C10.6155 12.5571 10.4352 12.0178 10.3488 11.7582C10.3442 11.7441 10.3389 11.7294 10.3343 11.7147C10.2905 11.7117 10.217 11.7123 10.0968 11.7264C9.94454 11.7441 9.76777 11.777 9.59683 11.8093C9.35588 11.8545 9.12777 11.8968 8.95392 11.9003H8.94867H8.94342C8.15115 11.8868 7.73284 11.5079 7.50765 11.3046C7.5024 11.2999 7.49656 11.2946 7.49015 11.2888C7.26495 11.529 6.84606 11.9761 5.74867 12.375C5.68217 12.3991 5.61216 12.4237 5.53981 12.4472C4.97099 12.6581 4.72771 12.7786 4.45642 12.983C4.35666 13.0582 4.24757 13.1498 4.10346 13.2779C3.49205 13.8953 3.22485 14.4094 3.19743 14.5926C3.2231 14.605 3.25461 14.6185 3.27911 14.6291C3.43896 14.6972 3.65716 14.7906 3.75984 15.0127C3.87652 15.2665 3.74584 15.7734 3.4693 15.9191C3.36545 15.9755 3.22427 15.9984 3.06733 15.9984L3.06966 16.0002ZM2.09071 15.1378C2.25873 15.2864 2.95649 15.4603 3.17818 15.4074C3.19802 15.3693 3.21727 15.3011 3.22135 15.2547C3.18343 15.2271 3.10117 15.1918 3.05333 15.1719C2.93081 15.1196 2.80421 15.0655 2.7167 14.9533C2.55043 14.7407 2.58719 14.4129 2.82464 13.9793C3.01483 13.6327 3.3252 13.235 3.69916 12.8585L3.712 12.8461C3.87127 12.704 3.9932 12.6023 4.10755 12.516C4.46401 12.2463 4.79072 12.1012 5.34495 11.8962L5.35429 11.8927C5.42255 11.8698 5.48906 11.8469 5.55207 11.8239C6.51877 11.4726 6.87582 11.092 7.06717 10.887C7.18794 10.7583 7.30171 10.6367 7.48781 10.6367H7.52748L7.56774 10.6473C7.69434 10.6825 7.78943 10.7683 7.89912 10.8682C8.10156 11.0514 8.37868 11.3023 8.94925 11.3134C9.07585 11.3099 9.28704 11.2706 9.49182 11.2324C9.67209 11.1989 9.85878 11.1636 10.0315 11.1437C10.2928 11.1131 10.584 11.1055 10.7619 11.277L10.7817 11.2964L10.7975 11.3187C10.8366 11.3745 10.8576 11.4362 10.9031 11.5719C10.9906 11.8333 11.1528 12.3198 11.5122 12.9695C11.7216 13.349 11.9684 13.7285 12.2461 14.098C12.5705 14.5304 12.9427 14.9551 13.3522 15.3628C13.5448 15.4069 14.1503 15.4139 14.3639 15.351C14.3779 15.2847 14.3802 15.186 14.3679 15.1331C14.3038 15.0914 14.1637 15.0556 14.092 15.0368C14.0471 15.025 14.0068 15.0144 13.9753 15.0044L13.9666 15.0015C13.6422 14.8852 13.3108 14.4869 12.9234 13.7485L12.9176 13.7367C12.9059 13.7115 12.8838 13.6668 12.8546 13.6075C11.9106 11.6835 11.8581 11.2294 12.0962 10.9862L12.1049 10.978C12.6171 10.4969 12.8534 10.2572 13.0197 9.69559C13.0314 9.61569 13.0763 9.29729 13.0961 9.00944C13.1037 8.89312 13.092 8.61055 13.0809 8.33739C13.0454 7.48851 13.0471 7.19889 13.1264 7.04204L13.1375 7.02031L13.1515 7.00092C13.3102 6.78356 13.6398 6.73715 14.057 6.67841C14.3726 6.63376 14.8032 6.57325 14.9572 6.43167C15.2016 6.16967 15.4017 5.76608 15.4192 5.61276C15.3364 5.52758 15.2191 5.49115 15.0359 5.44004C14.746 5.35897 14.3493 5.24736 14.0996 4.74919C14.0208 4.59234 13.8744 4.43725 13.6661 4.28863C13.5815 4.22753 13.4998 4.187 13.4059 4.14059C13.3015 4.08889 13.1825 4.03073 13.05 3.9385C12.8983 3.83276 12.8067 3.69001 12.7519 3.53727C12.7233 3.60541 12.6988 3.66416 12.6813 3.70469C12.6224 3.84686 12.6043 3.88916 12.5874 3.9197L12.5658 3.95319C12.4275 4.13648 12.0442 4.18523 11.8237 4.0977C11.5886 4.00723 11.5197 3.71879 11.434 3.24589C11.2957 3.70117 11.1528 4.3321 11.1469 4.87256C11.1604 5.51465 10.9153 6.6878 10.4346 7.13956C10.2438 7.31873 10.0589 7.34282 9.93754 7.33166L9.92062 7.32931C8.12548 7.05379 6.65996 7.39745 5.44063 8.37968L5.42663 8.39026C5.34612 8.44724 5.24577 8.46663 5.14426 8.4443C4.72537 8.35207 4.04687 7.31873 3.95878 7.166C3.5819 6.53918 3.48213 5.60571 3.40921 4.92367C3.39696 4.8097 3.38587 4.70455 3.3742 4.61114C3.29544 4.27159 3.14726 4.06716 3.03524 4.04424C3.02008 4.05717 3.00082 4.08302 2.98099 4.12238C2.70387 4.68164 2.93956 6.43226 3.31761 7.33048C3.66299 8.10828 3.83918 8.31859 4.38408 8.8097L4.40508 8.8285L4.42201 8.85082C4.6647 9.17393 4.58769 9.72437 4.17814 10.5838C4.05212 10.8476 3.82809 11.0644 3.56906 11.3158C3.22368 11.6506 2.83222 12.0301 2.60761 12.5988C2.1508 14.2143 2.08312 14.8729 2.09246 15.136L2.09071 15.1378Z" fill="#3F5EAB"/>
<path d="M7.59286 15.8459C7.31691 15.8459 7.05321 15.8141 6.91844 15.7495C6.71425 15.6573 6.04858 15.2132 5.52702 14.6057L5.5171 14.5934C5.31174 14.3267 5.04629 14.0359 4.73942 13.6987C4.52297 13.4614 4.29952 13.2164 4.06324 12.9427L3.8573 12.7041L4.10817 12.5144C4.46463 12.2453 4.79075 12.1002 5.34557 11.8952L5.35491 11.8917C5.42317 11.8688 5.48967 11.8459 5.55268 11.823L5.77088 11.7437L5.89689 11.9399C6.49722 12.8769 6.99195 13.5483 6.9972 13.5548C7.20431 13.8297 7.60278 14.2738 7.79472 14.3455C7.87056 14.3737 7.95224 14.3878 8.038 14.4025C8.20427 14.4313 8.39213 14.4636 8.54498 14.6122L8.56015 14.6275L8.57299 14.6445C8.70542 14.8184 8.68383 15.2079 8.65291 15.3583C8.61849 15.5275 8.54498 15.6455 8.43297 15.709L8.42247 15.7149C8.25736 15.8 7.91665 15.8435 7.59228 15.8435L7.59286 15.8459ZM7.17922 15.2238C7.33208 15.2719 7.86298 15.2713 8.08643 15.2179C8.09401 15.1597 8.09518 15.0763 8.08993 15.0146C8.0485 15.0023 7.98958 14.9923 7.93882 14.9835C7.84023 14.9664 7.71771 14.9453 7.59053 14.8977C7.17048 14.7403 6.63315 14.0465 6.52989 13.909C6.52406 13.9008 6.08475 13.3057 5.5311 12.4533C5.1513 12.5943 4.91794 12.6947 4.72308 12.8081C4.87593 12.9803 5.02412 13.143 5.16939 13.3022C5.48326 13.6458 5.75396 13.9437 5.97332 14.2274C6.43013 14.7573 7.02754 15.158 7.15589 15.2132L7.17922 15.2238Z" fill="#3F5EAB"/>
<path d="M9.34009 14.4052C9.22515 14.4052 9.11839 14.3899 9.02154 14.3576L9.00113 14.3512L8.98187 14.3418C8.69717 14.1996 8.40022 13.8806 8.42122 13.5158L8.42414 13.4894C8.46322 13.2268 8.72867 13.077 9.0653 12.8872C9.34534 12.7298 9.7263 12.5148 9.8214 12.2886C9.86807 12.0906 9.90016 11.8674 9.78873 11.5284L9.67555 11.1853L10.032 11.1436C10.2934 11.1131 10.5845 11.1054 10.7624 11.277L10.7823 11.2964L10.798 11.3187C10.8371 11.3745 10.8581 11.4362 10.9036 11.5719C10.9911 11.8333 11.1533 12.3197 11.5127 12.9695L11.6265 13.1751L11.452 13.3313C10.6878 14.0175 9.91416 14.4052 9.34067 14.4052H9.34009ZM9.22165 13.8048C9.51277 13.8806 10.1691 13.6397 10.889 13.0429C10.6761 12.6323 10.5372 12.2868 10.4462 12.036C10.4392 12.1858 10.4141 12.3203 10.3832 12.446L10.3733 12.4783C10.2134 12.9125 9.73505 13.1821 9.35 13.3995C9.23741 13.4629 9.09097 13.5452 9.01746 13.6016C9.04838 13.6662 9.12889 13.7525 9.22107 13.8048H9.22165Z" fill="#3F5EAB"/>
</svg>
