<svg width="14" height="19" viewBox="0 0 14 19" fill="none" xmlns="http://www.w3.org/2000/svg">
<path d="M0.380479 18.3757C0.189895 18.3757 0.0347845 18.2224 0.0326979 18.0324C0.0326979 18.0324 0.024344 17.2515 0.0166928 16.0849C0.0166928 15.9906 0.0542538 15.9005 0.121723 15.8346C0.189193 15.7687 0.280313 15.7333 0.375605 15.7361C0.950139 15.7548 1.24993 15.7382 1.40226 15.7201C1.40226 15.4732 1.40504 15.0821 1.40851 14.6507C1.41199 14.1791 1.41687 13.6569 1.41478 13.3767C1.28749 13.3434 0.991175 13.2934 0.347085 13.2837C0.157196 13.281 0.00487301 13.127 0.00417745 12.9377C0.00417745 12.722 0.00417745 12.5042 0.00417745 12.2857C0.00417745 12.0118 0.00347985 11.7392 0.00208872 11.4604C0.00139316 11.2718 0 11.0811 0 10.8855C0 10.7912 0.0382573 10.701 0.105727 10.6358C0.173196 10.5706 0.264317 10.5345 0.359609 10.538C0.944576 10.5574 1.24854 10.5408 1.40226 10.5221C1.40226 10.2752 1.40504 9.884 1.40851 9.45262C1.41199 8.98102 1.41687 8.45878 1.41478 8.17859C1.29097 8.146 1.00787 8.09814 0.403429 8.08635C0.309528 8.08427 0.220493 8.04543 0.156501 7.97677C0.0925097 7.9088 0.0584289 7.81795 0.0626023 7.72432C0.0730357 7.48228 0.0744312 7.31305 0.0758224 7.14938C0.0786046 6.79637 0.0813801 6.51687 0.173194 5.78657C0.34778 4.39325 1.035 3.17609 2.3364 1.95546C3.70109 0.675184 5.39686 -0.0183561 7.12047 0.000369509C8.79538 0.0190951 10.4286 0.700845 11.7181 1.92009C12.838 2.97843 13.6358 4.39325 13.8514 5.70473C13.8514 5.70682 13.8514 5.7082 13.8521 5.71028C14.0427 7.00096 13.9954 17.5136 13.9933 17.961C13.9926 18.151 13.8382 18.305 13.6476 18.3064L0.382559 18.375H0.380479V18.3757ZM0.71504 16.4373C0.718517 16.9727 0.722692 17.4034 0.724779 17.6801L13.2991 17.6149C13.3151 13.763 13.3061 6.78666 13.1642 5.81501C12.9715 4.64847 12.2523 3.38138 11.2396 2.42429C10.4174 1.64683 9.03326 0.716103 7.11212 0.694603C5.57006 0.679345 4.04539 1.30492 2.81286 2.46105C1.26662 3.91124 0.959878 5.10274 0.863195 5.87327C0.776249 6.56403 0.774167 6.8248 0.771384 7.15562C0.771384 7.23191 0.76999 7.31305 0.768599 7.40391C1.61162 7.44275 2.09434 7.57591 2.10825 8.00521C2.11451 8.20703 2.10964 8.843 2.10477 9.45817C2.0999 10.0186 2.09573 10.5977 2.1006 10.7273C2.10547 10.839 2.06304 10.9451 1.98235 11.0263C1.85924 11.1497 1.67005 11.2517 0.697651 11.2399C0.697651 11.3127 0.697651 11.3855 0.698347 11.457C0.699738 11.7365 0.701131 12.0111 0.700436 12.2857C0.700436 12.3905 0.700436 12.4945 0.700436 12.5985C1.58658 12.6332 2.09434 12.765 2.10825 13.2026C2.11451 13.4044 2.10964 14.0404 2.10477 14.6556C2.0999 15.2159 2.09573 15.795 2.1006 15.9247C2.10547 16.0357 2.06304 16.1418 1.98235 16.223C1.85993 16.3457 1.67422 16.447 0.71504 16.4366V16.4373Z" fill="#3F5EAB"/>
<path d="M0.843787 11.2403C0.696328 11.2403 0.528704 11.2376 0.336728 11.2313C0.149622 11.2251 0.000766621 11.0725 0.000766621 10.8852C-0.000624503 10.2354 0.0021642 9.44199 0.0334645 8.48698C0.0425068 8.22136 0.0522392 7.96683 0.0626726 7.72409C0.0710194 7.53822 0.224042 7.39258 0.409757 7.39258C0.411844 7.39258 0.413929 7.39258 0.416711 7.39258C1.47605 7.41269 2.09302 7.5195 2.10832 8.00497C2.11458 8.20679 2.10971 8.84277 2.10484 9.45794C2.09997 10.0183 2.0958 10.5974 2.10067 10.7271C2.10554 10.8388 2.06311 10.9449 1.98242 11.026C1.86557 11.1432 1.69029 11.2403 0.843787 11.2403ZM0.696328 10.5454C1.06776 10.5496 1.28199 10.5364 1.40302 10.5218C1.40302 10.2749 1.4058 9.88377 1.40928 9.45239C1.41276 8.98078 1.41763 8.45855 1.41555 8.17836C1.31747 8.1527 1.12062 8.11733 0.74363 8.09791C0.738761 8.23176 0.7332 8.36978 0.729026 8.50987C0.703291 9.29496 0.697024 9.96977 0.696328 10.5454Z" fill="#3F5EAB"/>
<path d="M0.844336 16.4386C0.701051 16.4386 0.53899 16.4358 0.35397 16.4296C0.16756 16.4233 0.0187034 16.2714 0.0173123 16.0856C0.0103567 14.9939 0.00618873 13.9349 0.00549316 12.9376C0.00549316 12.8447 0.0430528 12.7559 0.109131 12.6907C0.174514 12.6269 0.262155 12.5908 0.353274 12.5908C0.354665 12.5908 0.356748 12.5908 0.358139 12.5908C1.45504 12.6068 2.09287 12.7122 2.10818 13.2039C2.11444 13.4057 2.10956 14.0417 2.10469 14.6569C2.09983 15.2166 2.09566 15.7957 2.10053 15.9261C2.10539 16.0377 2.06296 16.1431 1.98227 16.225C1.86542 16.3422 1.69014 16.4393 0.84364 16.4393L0.844336 16.4386ZM0.710794 15.7443C1.07249 15.7485 1.28324 15.7346 1.40287 15.7208C1.40287 15.4739 1.40565 15.0827 1.40913 14.6513C1.41261 14.1797 1.41749 13.6575 1.4154 13.3773C1.31385 13.3509 1.10587 13.3135 0.701055 13.2948C0.702446 14.0805 0.705229 14.9017 0.710098 15.7443H0.710794Z" fill="#3F5EAB"/>
<path d="M5.96704 9.65056C5.80706 9.65056 5.65334 9.6249 5.50171 9.57357C5.49615 9.57149 5.48989 9.56941 5.48432 9.56733C5.26105 9.47786 5.07254 9.33083 4.94039 9.14358C4.71433 8.82941 4.63921 8.48125 4.71781 8.11159C4.7199 8.10049 4.72338 8.0887 4.72685 8.07761C4.83049 7.75511 4.9856 7.50891 5.39041 7.02481C5.97051 6.31116 6.35585 5.83747 7.11332 5.82568C7.11749 5.82568 7.12098 5.82568 7.12515 5.82568C7.85201 5.83817 8.29508 6.42143 8.53296 6.73491C8.56983 6.78346 8.60113 6.82507 8.62547 6.85282C9.04142 7.33344 9.30643 7.66634 9.41632 7.93058C9.54987 8.20938 9.54848 8.59013 9.41076 8.92928C9.40659 8.93968 9.40172 8.95008 9.39616 8.96048L9.39059 8.97158C9.32521 9.09711 9.1708 9.39187 8.80284 9.55277C8.5121 9.67968 8.22622 9.62975 7.98208 9.57357C7.84992 9.54444 7.74072 9.50699 7.64473 9.4744C7.49379 9.42307 7.39363 9.38978 7.23365 9.39117C7.01385 9.39533 6.92622 9.42377 6.71546 9.49243C6.62226 9.52294 6.50541 9.5604 6.35377 9.60339C6.34751 9.60478 6.34195 9.60686 6.33569 9.60825C6.2091 9.63669 6.08737 9.65125 5.96843 9.65125L5.96704 9.65056ZM5.73542 8.91956C5.87105 8.96395 6.01016 8.96811 6.17222 8.93274C6.30716 8.8946 6.40942 8.86131 6.49984 8.83218C6.73077 8.75728 6.89701 8.70318 7.22183 8.69694C7.50214 8.69139 7.6969 8.75866 7.868 8.81692C7.95495 8.84674 8.03703 8.87448 8.1358 8.89598C8.34586 8.94453 8.44671 8.95008 8.52323 8.9161C8.66442 8.85437 8.72842 8.73508 8.77085 8.65394C8.84319 8.46391 8.81954 8.29122 8.78685 8.22603C8.78267 8.2177 8.7785 8.20869 8.77502 8.19967C8.69086 7.98883 8.30412 7.54289 8.09685 7.30292C8.05859 7.25784 8.02103 7.2093 7.97791 7.15243C7.78872 6.90344 7.50354 6.52824 7.11819 6.51784C6.73216 6.52616 6.53392 6.71827 5.92739 7.46382C5.55735 7.9063 5.45928 8.07553 5.39459 8.27041C5.3612 8.4438 5.39529 8.58528 5.50727 8.74063C5.56222 8.819 5.64082 8.87934 5.73542 8.91956Z" fill="#3F5EAB"/>
<path d="M4.80982 7.1826C4.4523 7.1826 4.06417 6.9246 3.80751 6.48143C3.66214 6.23037 3.58424 5.95503 3.58842 5.70466C3.59398 5.39465 3.72614 5.1429 3.9515 5.0132C4.37649 4.76838 4.95589 5.03054 5.2988 5.62283C5.64171 6.21511 5.5798 6.84623 5.15481 7.09105C5.0477 7.15277 4.93015 7.1826 4.80982 7.1826ZM4.30137 5.61658C4.27146 5.67345 4.2638 5.88152 4.40987 6.13466C4.55594 6.3878 4.74096 6.4849 4.80565 6.48767C4.83556 6.4308 4.84321 6.22274 4.69714 5.9696C4.55037 5.71645 4.36605 5.61936 4.30137 5.61658Z" fill="#3F5EAB"/>
<path d="M6.15584 5.59305C5.96734 5.59305 5.77467 5.51329 5.60704 5.36071C5.42758 5.19773 5.2836 4.96054 5.20222 4.69214C5.12084 4.42374 5.10902 4.14702 5.16884 3.91191C5.24326 3.61854 5.4255 3.40909 5.66964 3.33558C6.12801 3.19756 6.61839 3.57346 6.81106 4.20874C6.89244 4.47714 6.90426 4.75387 6.84444 4.98898C6.77002 5.28234 6.58779 5.49179 6.34364 5.56531C6.28243 5.58403 6.21913 5.59305 6.15584 5.59305ZM5.87275 4.00692C5.83658 4.0631 5.79484 4.24689 5.86927 4.4924C5.94369 4.73791 6.08002 4.8683 6.14193 4.89465C6.1781 4.83848 6.21983 4.65469 6.14541 4.40918C6.07098 4.16366 5.93465 4.03328 5.87275 4.00692Z" fill="#3F5EAB"/>
<path d="M8.05204 5.60342C8.00683 5.60342 7.96162 5.59856 7.9171 5.58955C7.66809 5.53684 7.46847 5.34265 7.37039 5.05691C7.29179 4.82804 7.28066 4.55062 7.33909 4.27668C7.39751 4.00273 7.52132 3.75375 7.68617 3.57689C7.89275 3.35566 8.15429 3.25925 8.4033 3.31196C8.65231 3.36467 8.85194 3.55886 8.95001 3.84529C9.02861 4.07416 9.03973 4.35158 8.98131 4.62553C8.92288 4.89948 8.79977 5.14846 8.63422 5.32531C8.46451 5.50702 8.25862 5.60411 8.05204 5.60411V5.60342ZM8.25723 3.99718C8.19811 4.02908 8.07291 4.16987 8.01935 4.42093C7.96579 4.6713 8.02283 4.85162 8.06387 4.90433C8.12299 4.87243 8.24819 4.73164 8.30175 4.48058C8.35531 4.23021 8.29827 4.04989 8.25723 3.99718Z" fill="#3F5EAB"/>
<path d="M9.33807 7.14898C9.21844 7.14898 9.10437 7.11985 9.00282 7.0616C8.58826 6.82302 8.52635 6.20924 8.85953 5.63429C9.1927 5.05935 9.75611 4.80551 10.1707 5.04478C10.5852 5.28336 10.6471 5.89714 10.3139 6.47209C10.1734 6.71483 9.97938 6.91318 9.76654 7.03039C9.62395 7.10945 9.47719 7.14898 9.33738 7.14898H9.33807ZM9.81941 5.65094C9.75333 5.66342 9.59056 5.75843 9.46189 5.98037C9.33321 6.2023 9.33182 6.39094 9.35408 6.45405C9.42016 6.44226 9.58291 6.34656 9.71159 6.12462C9.84027 5.90269 9.84166 5.71405 9.81941 5.65094Z" fill="#3F5EAB"/>
<path d="M11.6173 12.3629C10.9871 12.3629 10.4738 11.8517 10.4738 11.2227C10.4738 10.5937 10.9864 10.0825 11.6173 10.0825C12.2481 10.0825 12.7608 10.5937 12.7608 11.2227C12.7608 11.8517 12.2481 12.3629 11.6173 12.3629ZM11.6173 10.7768C11.3703 10.7768 11.1693 10.9772 11.1693 11.2234C11.1693 11.4696 11.3703 11.67 11.6173 11.67C11.8642 11.67 12.0652 11.4696 12.0652 11.2234C12.0652 10.9772 11.8642 10.7768 11.6173 10.7768Z" fill="#3F5EAB"/>
</svg>
