<svg width="17" height="18" viewBox="0 0 17 18" fill="none" xmlns="http://www.w3.org/2000/svg">
<path d="M12.0775 17.9983C11.3885 17.9983 10.726 17.8187 10.4193 17.5857C10.2285 17.4407 10.1787 17.2849 10.1705 17.1795C10.1365 16.7311 10.8097 16.4322 11.1001 16.3248C11.5422 16.1578 11.8677 16.0975 12.1291 16.0492C12.4245 15.9945 12.6379 15.955 12.9245 15.788C13.3225 15.5556 13.536 15.0696 13.5133 14.7374C13.5026 14.706 13.4894 14.6953 13.4182 14.6401C13.3187 14.5622 13.1682 14.4442 12.9799 14.1905L12.9661 14.1698C12.7872 13.8841 12.7085 13.7183 12.6455 13.5858C12.5819 13.452 12.5397 13.3641 12.4093 13.1908C12.1782 12.8844 11.9143 12.7374 11.7021 12.62C11.5516 12.5365 11.4326 12.4699 11.3501 12.3594C11.2619 12.2401 11.2581 12.1026 11.2984 11.6844C11.2839 11.7064 11.2701 11.7265 11.2575 11.7453C11.061 12.0373 10.9936 12.1371 10.8834 12.1924C10.7764 12.2464 10.3972 12.377 10.1737 12.1723L10.151 12.1497C10.0704 12.0593 10.0332 11.9337 9.92743 11.5506C9.90854 11.4822 9.88335 11.3905 9.85564 11.2938C9.656 11.8533 9.35498 12.6577 8.763 13.1713C8.35491 13.5399 8.0797 13.6819 7.86495 13.7717C7.52299 13.9142 7.26919 13.879 7.02421 13.8445C6.82395 13.8162 6.61739 13.788 6.28487 13.8307C6.0802 13.8571 5.95487 13.8954 5.82262 13.9355C5.6381 13.9914 5.44665 14.0492 5.08705 14.0756C5.06879 14.0768 4.63047 14.1076 4.23561 14.0549C3.38291 13.9374 2.16431 12.8624 1.81983 12.2238C1.68632 11.9764 1.66113 11.7629 1.74426 11.5902L1.75308 11.5726C1.96908 11.1877 2.47227 10.9466 3.05417 10.6671C3.52901 10.4398 4.01897 10.2044 4.34771 9.89101C4.4491 9.72147 4.46988 9.58395 4.49571 9.4119C4.52404 9.22415 4.55616 9.0119 4.69219 8.75696L4.69597 8.75006C5.01967 8.17864 5.68722 7.90737 6.12869 7.72778C6.1967 7.70015 6.27479 7.66875 6.33273 7.64238C6.31699 7.48477 6.26031 7.19529 6.22063 6.98933C6.05563 6.14036 5.97313 5.71462 6.28487 5.54068L6.30628 5.52875L6.32958 5.51996C6.68099 5.38998 7.09412 5.76988 7.18166 5.8559C7.57463 6.24397 7.77615 6.68164 7.90904 6.97112C7.92856 7.01382 7.9506 7.06217 7.97012 7.10173C8.00602 7.0967 8.04695 7.08854 8.08411 7.07849C8.06459 6.92904 8.01987 6.68541 7.98461 6.49451C7.80197 5.50238 7.71822 5.04963 8.06962 4.90144L8.09545 4.89077L8.12253 4.88449C8.24785 4.85623 8.54195 4.78904 9.24981 5.77302C9.52123 6.1504 10.9546 8.06435 12.4887 8.67596L12.5126 8.68663C13.9113 9.38427 14.611 9.83387 15.3245 10.8128L15.3302 10.8204C15.6356 11.2674 16.3214 12.4743 16.0935 14.0322C15.9077 15.3013 15.2005 16.1239 14.9341 16.4335L14.8957 16.4781C14.468 16.976 13.8213 17.7289 12.7507 17.938C12.5309 17.9807 12.3029 18.0002 12.0775 18.0002V17.9983ZM10.8765 17.138C11.1611 17.2887 11.9251 17.4576 12.6298 17.3201C13.4856 17.1531 14.0241 16.5258 14.4177 16.068L14.4567 16.0228C14.7124 15.7252 15.3119 15.0288 15.4713 13.9399C15.6665 12.6056 15.0783 11.5657 14.8132 11.1764C14.1897 10.3211 13.5958 9.92743 12.2437 9.2524C10.595 8.58868 9.14527 6.7011 8.73907 6.13722C8.66223 6.03047 8.58414 5.93063 8.51046 5.84272C8.54069 6.03298 8.57785 6.23455 8.60493 6.38023C8.73466 7.0854 8.75544 7.25117 8.68113 7.39874C8.61185 7.53877 8.44497 7.63987 8.18739 7.69889C7.92163 7.7598 7.72074 7.73908 7.58911 7.63735L7.56077 7.61224C7.47324 7.52621 7.41656 7.40251 7.33784 7.23108C7.21692 6.96798 7.05129 6.60817 6.73956 6.29985L6.73641 6.29671C6.76538 6.48447 6.8082 6.7055 6.83969 6.86751C6.97131 7.54442 7.00658 7.77801 6.9203 7.95258L6.9033 7.98272C6.81135 8.12714 6.64384 8.19496 6.36674 8.30736C6.00714 8.45367 5.46365 8.67408 5.24639 9.05335C5.16263 9.21159 5.14247 9.34659 5.11917 9.50295C5.08705 9.7177 5.05053 9.96071 4.86097 10.2565L4.84208 10.2854L4.81752 10.3098C4.41384 10.7098 3.83697 10.9868 3.32812 11.231C2.91247 11.4301 2.4836 11.636 2.33183 11.8345C2.42567 12.193 3.60522 13.3321 4.32063 13.4307C4.64874 13.4746 5.03793 13.4476 5.04171 13.447C5.3314 13.4263 5.47436 13.383 5.63936 13.3327C5.78421 13.2888 5.94794 13.2392 6.20426 13.2059C6.62053 13.1519 6.89322 13.1902 7.11175 13.221C7.33028 13.2517 7.43923 13.2668 7.62249 13.1902C7.78812 13.1211 8.0035 13.0087 8.34609 12.6998C8.84046 12.2709 9.10874 11.5174 9.2857 11.0188C9.34931 10.8398 9.4041 10.6854 9.45952 10.5711C9.62389 10.2314 9.8462 10.2332 9.96333 10.2653L9.99797 10.2766C10.2373 10.3714 10.3355 10.6552 10.5358 11.3824C10.5541 11.4495 10.5761 11.5287 10.5962 11.5984C10.6378 11.5393 10.692 11.459 10.7361 11.3943C11.1548 10.7726 11.408 10.4248 11.7443 10.5133L11.7771 10.524C12.0422 10.6257 12.0195 10.8499 11.9502 11.5149C11.9339 11.67 11.9118 11.8866 11.9062 12.0122C11.9383 12.0316 11.9773 12.053 12.0101 12.0712C12.2462 12.2024 12.6027 12.4002 12.9138 12.8134C13.0826 13.037 13.1443 13.1663 13.2154 13.3158C13.274 13.4388 13.3401 13.5776 13.4951 13.8269C13.6292 14.0059 13.7243 14.0806 13.8087 14.1465C13.9252 14.2376 14.0574 14.3412 14.1286 14.593L14.1355 14.6181L14.1387 14.6445C14.196 15.1751 13.9019 15.9462 13.2438 16.3305C12.8621 16.5528 12.563 16.6087 12.2456 16.6671C11.9962 16.7135 11.7141 16.7656 11.3224 16.9132C11.1202 16.9879 10.9691 17.0733 10.8778 17.138H10.8765Z" fill="#3F5EAB"/>
<path d="M6.1294 10.391C6.32626 10.391 6.48584 10.2319 6.48584 10.0356C6.48584 9.8393 6.32626 9.68018 6.1294 9.68018C5.93254 9.68018 5.77295 9.8393 5.77295 10.0356C5.77295 10.2319 5.93254 10.391 6.1294 10.391Z" fill="#3F5EAB"/>
<path d="M12.0285 14.2272C12.1826 14.2272 12.3075 14.1027 12.3075 13.9491C12.3075 13.7954 12.1826 13.6709 12.0285 13.6709C11.8744 13.6709 11.7495 13.7954 11.7495 13.9491C11.7495 14.1027 11.8744 14.2272 12.0285 14.2272Z" fill="#405FAB"/>
<path d="M3.53523 6.61089C2.80911 6.61089 2.17368 6.41247 1.84242 6.28625L1.83046 6.28123C0.544474 5.72739 0.160947 4.42568 0.074039 4.04013C-0.11741 3.21816 0.0211387 1.98866 0.982791 1.00971C1.87328 0.087903 3.20083 -0.128735 4.12028 0.0652973C4.69211 0.186489 5.27654 0.516155 5.47995 0.832006C5.57693 0.983338 5.57567 1.11206 5.55678 1.19432C5.47365 1.56041 5.08572 1.53655 4.80232 1.51897C4.43391 1.49636 3.93009 1.46496 3.49619 1.82854L3.48422 1.83796C3.11329 2.1199 2.87839 2.64485 2.88531 3.17483C2.89098 3.59869 3.0522 4.21406 3.78399 4.7453C4.38605 5.09506 4.88545 4.90291 5.25071 4.76225C5.4894 4.67057 5.88867 4.51673 6.07571 4.87842L6.0883 4.90668C6.31691 5.48249 5.15688 6.20462 5.14491 6.21153C4.61339 6.51042 4.05101 6.61089 3.53397 6.61089H3.53523ZM2.07355 5.70164C3.52516 6.2536 4.48744 5.86051 4.83444 5.66585C4.91127 5.62189 5.00196 5.55533 5.09075 5.48187C4.67007 5.60054 4.09257 5.65769 3.45147 5.27841L3.42817 5.26334C2.68379 4.72834 2.26751 3.98989 2.25681 3.18362C2.24673 2.46401 2.57673 1.74314 3.09754 1.34315C3.59128 0.931848 4.13288 0.872822 4.54475 0.879101C4.38857 0.798725 4.19775 0.723373 3.98992 0.679418C3.43069 0.561366 2.2631 0.589623 1.43496 1.44675C0.649015 2.24612 0.534398 3.23763 0.688061 3.9001C0.832907 4.54436 1.27311 5.35377 2.07355 5.70164Z" fill="#3F5EAB"/>
</svg>
