<svg width="19" height="18" viewBox="0 0 19 18" fill="none" xmlns="http://www.w3.org/2000/svg">
<path d="M12.6021 8.52872C12.3823 8.50635 12.1826 8.42888 12.0024 8.35169C11.849 8.28746 11.7258 8.21948 11.617 8.15979C11.4454 8.06472 11.3318 8.00199 11.1385 7.97037C10.8723 7.92792 10.7609 7.94388 10.4908 7.98121C10.3716 7.99808 10.2232 8.01879 10.0306 8.03842C10.0229 8.03934 10.0152 8.03941 10.0074 8.04033C9.63646 8.05715 9.31106 7.98566 9.0123 7.81964C9.00591 7.81558 8.99859 7.81228 8.99219 7.80821C8.74268 7.65148 8.54704 7.43369 8.42836 7.17855C8.22438 6.75011 8.20857 6.31183 8.38261 5.88093C8.38819 5.86785 8.39378 5.85477 8.40105 5.84186C8.59509 5.47355 8.83567 5.20806 9.42761 4.70882C10.2815 3.96843 10.8481 3.47599 11.7628 3.62539C11.7679 3.6259 11.7721 3.62633 11.777 3.62769C12.6496 3.79922 13.0581 4.60071 13.2771 5.03153C13.3112 5.09811 13.3402 5.15565 13.3626 5.19461C13.7605 5.86623 14.008 6.32724 14.0845 6.67106C14.1851 7.03695 14.1016 7.49753 13.8629 7.87836C13.8557 7.89042 13.8478 7.90155 13.839 7.9126L13.8293 7.9244C13.7233 8.06287 13.4743 8.38551 12.9963 8.50146C12.8594 8.53443 12.7278 8.5398 12.6031 8.52712L12.6021 8.52872ZM11.096 7.1089C11.1508 7.11448 11.2095 7.12216 11.2732 7.13205C11.6129 7.18795 11.832 7.30919 12.0262 7.41594C12.1253 7.47038 12.218 7.5216 12.333 7.56998C12.5767 7.67496 12.6973 7.70258 12.7985 7.67792C12.9835 7.63278 13.087 7.50173 13.1556 7.41234C13.2848 7.19691 13.2931 6.98114 13.2679 6.89414C13.2648 6.88274 13.2617 6.87133 13.2595 6.86002C13.2032 6.58563 12.8328 5.96115 12.6338 5.62618C12.5976 5.56365 12.5628 5.49614 12.5231 5.4179C12.3487 5.0752 12.0849 4.5571 11.6207 4.46209C11.1516 4.38962 10.871 4.58024 9.97793 5.35417C9.43619 5.81161 9.28126 5.99627 9.16079 6.21855C9.08298 6.423 9.09365 6.60234 9.19531 6.81567C9.24479 6.92305 9.32657 7.0141 9.43357 7.08299C9.58846 7.16613 9.75584 7.20193 9.95918 7.19362C10.1303 7.17607 10.2606 7.15778 10.3763 7.14141C10.6232 7.10683 10.8122 7.08002 11.0985 7.10916L11.096 7.1089Z" fill="#3F5EAB"/>
<path d="M8.75648 4.78234C8.30343 4.73623 7.85977 4.33031 7.63536 3.7096C7.51457 3.37492 7.47964 3.02424 7.53929 2.72242C7.61222 2.34861 7.82587 2.07185 8.12451 1.96323C8.42314 1.8546 8.76344 1.93018 9.0581 2.16997C9.29616 2.36393 9.49369 2.65524 9.61448 2.98993C9.89986 3.78059 9.6899 4.53108 9.12533 4.7363C9.00429 4.78027 8.88036 4.7941 8.75657 4.7815L8.75648 4.78234ZM8.41392 2.76454C8.36519 2.82525 8.30809 3.077 8.43223 3.42055C8.55637 3.76411 8.76082 3.92052 8.83752 3.936C8.88624 3.87529 8.94334 3.62354 8.8192 3.27998C8.69506 2.93643 8.49062 2.78002 8.41392 2.76454Z" fill="#3F5EAB"/>
<path d="M10.7168 3.14276C10.4684 3.11748 10.231 2.97562 10.0478 2.73607C9.86671 2.50016 9.74421 2.18237 9.70421 1.8397C9.60972 1.02923 9.97668 0.366367 10.5571 0.298359C10.8662 0.262442 11.1728 0.409642 11.399 0.703875C11.58 0.939785 11.7025 1.25759 11.7425 1.60025C11.7825 1.94291 11.7371 2.2803 11.615 2.55188C11.4623 2.89028 11.1979 3.10558 10.8896 3.14159C10.8319 3.14851 10.7741 3.14859 10.7168 3.14276ZM10.6569 1.1486C10.6007 1.20686 10.5082 1.4226 10.5455 1.74111C10.5829 2.05962 10.722 2.24777 10.7907 2.29143C10.8468 2.23318 10.9394 2.01744 10.902 1.69977C10.8646 1.38126 10.7255 1.19312 10.6568 1.14945L10.6569 1.1486Z" fill="#3F5EAB"/>
<path d="M13.0021 3.56336C12.9271 3.55573 12.854 3.53806 12.7838 3.50874C12.4954 3.39154 12.2982 3.1139 12.2411 2.74732C12.1953 2.45353 12.2416 2.11539 12.3711 1.79594C12.5006 1.4765 12.703 1.202 12.9398 1.02313C13.2357 0.799933 13.5711 0.739404 13.8595 0.856605C14.1479 0.973806 14.3451 1.25144 14.4023 1.61803C14.4481 1.91182 14.4018 2.24996 14.2723 2.5694C14.1428 2.88884 13.9404 3.16334 13.7035 3.34222C13.4797 3.51048 13.2336 3.58693 13.0029 3.56345L13.0021 3.56336ZM13.5371 1.65023C13.4598 1.67392 13.2749 1.81885 13.1545 2.11534C13.0342 2.41183 13.0658 2.64448 13.1045 2.71579C13.1818 2.6921 13.3667 2.54717 13.4871 2.25068C13.6074 1.95419 13.5758 1.72154 13.5371 1.65023Z" fill="#3F5EAB"/>
<path d="M14.2287 5.71342C14.0586 5.69611 13.9033 5.6334 13.7773 5.5259C13.5399 5.32519 13.4369 4.99999 13.4955 4.63325C13.5424 4.33952 13.6911 4.03226 13.9119 3.76817C14.1337 3.50417 14.41 3.30543 14.6912 3.20953C15.0412 3.08908 15.3786 3.13451 15.6168 3.3353C15.8542 3.53601 15.9572 3.86121 15.8986 4.22795C15.8517 4.52168 15.703 4.82894 15.4822 5.09302C15.2605 5.35703 14.9841 5.55577 14.703 5.65167C14.5389 5.70832 14.3787 5.72784 14.2288 5.71258L14.2287 5.71342ZM15.066 3.99054C14.9853 3.98915 14.7653 4.0691 14.5592 4.31422C14.353 4.55933 14.3124 4.7906 14.3273 4.86973C14.408 4.87112 14.628 4.79116 14.8342 4.54605C15.0404 4.30094 15.0809 4.06967 15.066 3.99054Z" fill="#3F5EAB"/>
<path d="M13.1145 18C12.9755 18 12.8311 17.9567 12.7035 17.8671L10.2151 16.1211C9.9981 15.9693 9.93469 15.6752 10.0737 15.4652L10.0867 15.4463C10.157 15.3402 10.2709 15.2702 10.3992 15.2552C10.5146 15.2418 10.6322 15.2725 10.7308 15.3417L11.9548 16.2006L12.3452 15.6107L11.1212 14.7519C11.0227 14.6827 10.9516 14.5812 10.921 14.4656C10.8874 14.3374 10.9088 14.2021 10.9791 14.096L10.9921 14.0771C11.1304 13.8679 11.4199 13.8215 11.6369 13.9733L12.8609 14.8321L13.2307 14.2729L12.0067 13.4141C11.7897 13.2623 11.7263 12.9682 11.8654 12.7582L11.8784 12.7393C12.0166 12.5301 12.3062 12.4837 12.5232 12.6355L13.7472 13.4943L14.0963 12.9674L12.8724 12.1085C12.7738 12.0393 12.7027 11.9379 12.6722 11.8223C12.6386 11.6941 12.66 11.5588 12.7302 11.4526L12.7432 11.4338C12.8135 11.3276 12.9274 11.2576 13.0557 11.2426C13.1711 11.2293 13.2887 11.2599 13.3873 11.3299L14.6113 12.1888L14.9482 11.6799L13.7242 10.8211C13.5073 10.6693 13.4438 10.3752 13.5829 10.1652L13.5959 10.1463C13.6662 10.0401 13.78 9.97013 13.9084 9.95519C14.0237 9.94182 14.1414 9.97249 14.2399 10.0425L15.4639 10.9013L15.8986 10.2446L14.6747 9.38578C14.5761 9.31657 14.5051 9.21512 14.4745 9.09951C14.4409 8.97131 14.4623 8.83604 14.5326 8.72986L14.5448 8.71099C14.6838 8.501 14.9726 8.4546 15.1896 8.60639L16.4136 9.46521L16.9026 8.72672L15.6786 7.86789C15.4616 7.7161 15.3982 7.42196 15.5373 7.21197L15.5502 7.1931C15.6885 6.9839 15.9781 6.9375 16.1951 7.08928L18.6835 8.83525C18.9983 9.05625 19.0945 9.47623 18.8982 9.77273L13.6287 17.7302C13.5118 17.9064 13.3178 17.9992 13.113 17.9992L13.1145 18ZM12.1618 16.8203L13.0053 17.4125C13.0779 17.4636 13.1634 17.4589 13.1887 17.4204L18.4581 9.46285C18.4833 9.4251 18.4566 9.34174 18.384 9.29062L17.5405 8.69919C17.5344 8.73773 17.5207 8.77548 17.4977 8.81008L16.7077 10.0032C16.668 10.0637 16.6061 10.1046 16.5366 10.1188H16.5351V10.1203C16.5481 10.1919 16.5335 10.2666 16.493 10.3264L15.7565 11.4385C15.7145 11.5022 15.6511 11.5415 15.5839 11.5541V11.5557C15.5969 11.6272 15.5823 11.7019 15.5418 11.7617L14.9039 12.7251C14.8619 12.7888 14.7984 12.8282 14.7305 12.8408C14.7434 12.9107 14.7305 12.9855 14.6892 13.0492L14.039 14.0315C13.9993 14.092 13.9374 14.1329 13.8679 14.1471H13.8663V14.1487C13.8793 14.2202 13.8648 14.2949 13.8243 14.3547L13.1527 15.3685C13.1107 15.4322 13.0473 15.4715 12.9793 15.4841C12.9923 15.5541 12.9793 15.6288 12.9381 15.6925L12.2466 16.7369C12.2245 16.7707 12.1954 16.7983 12.1618 16.8187V16.8203Z" fill="#3F5EAB"/>
<path d="M4.46599 16.5786C3.65965 16.5786 2.87048 16.0017 2.55914 15.1076C2.17762 14.011 2.6562 12.8467 3.6253 12.511C3.8463 12.4343 4.08148 12.406 4.31741 12.4261L4.5847 10.1824L0.107263 5.72392C-0.115228 5.50282 0.0676926 5.16856 0.128915 5.07104C0.146834 5.04275 0.169232 5.01893 0.19611 4.99958L0.225974 4.97798C0.249866 4.96086 0.276744 4.94746 0.305115 4.93853C0.473103 4.88865 0.779961 4.82984 0.956162 5.00553L4.75194 8.78506L5.38357 3.47421C5.41269 3.2278 5.69043 3.08338 5.85319 3.01936C5.88082 3.00819 5.90994 3.00223 5.9398 3.00149L5.97638 3C6.00924 3 6.04209 3.00372 6.07344 3.01489C6.1817 3.0536 6.53261 3.20323 6.49603 3.51367L5.75016 9.77964L7.37852 11.401C7.56219 11.2142 7.78244 11.0735 8.02808 10.9886C8.99793 10.6529 10.0969 11.2722 10.4785 12.3688C10.86 13.4654 10.3814 14.6297 9.4123 14.9654C8.44319 15.3004 7.34343 14.6818 6.96191 13.5852C6.832 13.2108 6.79766 12.8214 6.86037 12.4477L5.58441 11.177L5.38208 12.8773C5.69342 13.1371 5.93756 13.4914 6.07643 13.8912C6.45795 14.9878 5.97937 16.1521 5.01027 16.4878C4.83183 16.5496 4.64891 16.5786 4.46673 16.5786H4.46599ZM4.17182 12.9405C4.04341 12.9405 3.91723 12.9614 3.79777 13.0031C3.10043 13.2443 2.7667 14.1115 3.05414 14.9364C3.34084 15.7612 4.14196 16.2362 4.83929 15.995C5.53663 15.7538 5.87037 14.8865 5.58292 14.0617C5.46047 13.7103 5.23575 13.4051 4.95054 13.2026C4.86169 13.1393 4.82137 13.0284 4.84975 12.9234C4.84975 12.9234 4.85049 12.9204 4.85124 12.9182L5.12898 10.5821C5.14093 10.4831 5.20812 10.399 5.30294 10.367C5.39701 10.3342 5.50229 10.3581 5.57321 10.4288L7.24413 12.0926C7.36807 12.1395 7.43676 12.272 7.40391 12.4001C7.32029 12.7261 7.33821 13.0768 7.45542 13.4133C7.74212 14.2381 8.54324 14.7131 9.24057 14.4719C9.93791 14.2307 10.2716 13.3634 9.9842 12.5385C9.6975 11.7137 8.89639 11.2387 8.19905 11.4799C7.96387 11.5611 7.76154 11.7182 7.61221 11.9348C7.56816 11.9988 7.49798 12.0398 7.42108 12.0465C7.34343 12.0532 7.26728 12.0264 7.21203 11.9713L5.29099 10.0581C5.23425 10.0015 5.20663 9.92257 5.21633 9.84292L5.96593 3.54047C5.93831 3.55535 5.91367 3.57099 5.8965 3.58364L5.20663 9.37838C5.19468 9.47739 5.12749 9.56152 5.03267 9.59353C4.93785 9.62628 4.83332 9.60246 4.76239 9.53174L0.620932 5.40827C0.599281 5.40827 0.570163 5.412 0.539552 5.41721L5.04387 9.90173C5.10061 9.9583 5.12823 10.0372 5.11853 10.1169L4.8042 12.7582C4.79524 12.8326 4.75418 12.9003 4.69221 12.9428C4.63024 12.9852 4.55185 12.9986 4.47943 12.98C4.37714 12.9532 4.27336 12.9405 4.17108 12.9405H4.17182Z" fill="#3F5EAB"/>
<path d="M4.57955 15.9629C4.36826 15.9629 4.14801 15.8817 3.94717 15.7246C3.69258 15.5259 3.48502 15.2221 3.36257 14.8693C3.24013 14.5164 3.214 14.1494 3.29015 13.836C3.37527 13.4868 3.58506 13.2315 3.86504 13.134C4.14577 13.0365 4.46905 13.1079 4.75277 13.3298C5.00736 13.5285 5.21492 13.8323 5.33736 14.1851C5.46056 14.538 5.48594 14.905 5.40979 15.2184C5.32467 15.5676 5.11487 15.8229 4.83489 15.9204C4.75277 15.9487 4.66691 15.9629 4.57955 15.9629ZM4.12337 13.6127C4.09425 13.6127 4.06514 13.6171 4.03602 13.6268C3.88595 13.6789 3.82249 13.8576 3.7971 13.9588C3.74484 14.1725 3.76649 14.442 3.85534 14.698C3.94418 14.9541 4.095 15.179 4.26896 15.3145C4.35183 15.3792 4.5131 15.4805 4.66243 15.4283C4.8125 15.3762 4.87596 15.1976 4.9006 15.0963C4.95286 14.8827 4.93121 14.6132 4.84236 14.3571C4.75351 14.101 4.6027 13.8762 4.42874 13.7407C4.36154 13.6886 4.24432 13.6127 4.12188 13.6127H4.12337Z" fill="#3F5EAB"/>
<path d="M8.99198 14.437C8.78069 14.437 8.56044 14.3551 8.3596 14.1988C8.10501 14 7.89745 13.6963 7.775 13.3434C7.65181 12.9905 7.62643 12.6235 7.70258 12.3101C7.7877 11.961 7.99675 11.7056 8.27747 11.6081C8.83146 11.4168 9.47803 11.8783 9.74979 12.6593C10.0216 13.4402 9.80056 14.2025 9.24732 14.3938C9.1652 14.4221 9.07934 14.4362 8.99198 14.4362V14.437ZM8.53431 12.0868C8.50444 12.0868 8.47533 12.0912 8.44919 12.1002C8.29913 12.1523 8.23566 12.331 8.21028 12.4329C8.15802 12.6466 8.17967 12.9161 8.26851 13.1722C8.35736 13.4283 8.50818 13.6531 8.68214 13.7886C8.76501 13.8533 8.92628 13.9538 9.0756 13.9025C9.30929 13.8221 9.4407 13.3613 9.25554 12.8305C9.09203 12.36 8.768 12.0868 8.53356 12.0868H8.53431Z" fill="#3F5EAB"/>
</svg>
