<svg width="18" height="16" viewBox="0 0 18 16" fill="none" xmlns="http://www.w3.org/2000/svg">
<path d="M1.74417 15.1923C1.56444 15.1923 1.41466 15.0517 1.40445 14.8712C1.38607 14.5257 1.35067 12.7419 1.431 12.4636C1.48751 12.2681 1.65771 12.1174 1.87284 11.9259C2.10771 11.7176 2.39978 11.4589 2.51687 11.1548C2.6401 10.7054 2.6578 10.1522 2.46105 9.95399C2.24932 9.88882 1.99198 9.85828 1.74213 9.82841C1.3071 9.77682 0.896579 9.72794 0.629027 9.49375C0.167448 9.1143 -0.174992 8.20401 0.0959639 7.71254C0.0986871 7.70779 0.100733 7.70372 0.103456 7.69965C0.196725 7.54759 0.33152 7.39011 0.484017 7.25774C0.542566 7.20683 0.590903 7.16949 0.633793 7.13623C0.74272 7.05206 0.803311 7.00522 0.961255 6.75745C1.04499 6.60879 1.11239 6.47913 1.1723 6.36441C1.33161 6.05759 1.45756 5.81525 1.72919 5.54848C2.12473 5.1602 2.63601 5.03529 3.0084 4.94433C3.15069 4.90971 3.36446 4.85745 3.41824 4.81332C3.45841 4.72847 3.47611 4.39517 3.48768 4.1732C3.51695 3.62675 3.54691 3.06198 3.83353 2.73208C3.85667 2.7056 3.88322 2.6832 3.91318 2.66487C4.3591 2.39335 4.756 2.99478 5.41365 3.99196C5.51917 4.15216 5.61857 4.30286 5.70299 4.42436C5.90314 4.70947 6.10874 4.90293 6.30821 5.0896C6.51653 5.2851 6.73235 5.48671 6.90799 5.77045C7.2409 6.26531 7.84953 7.69285 8.02994 8.33298C8.081 8.51354 7.97548 8.7009 7.79439 8.75181C7.61329 8.80272 7.4254 8.6975 7.37434 8.51694C7.19801 7.89378 6.60776 6.54091 6.33885 6.14448C6.33612 6.1404 6.3334 6.13633 6.33068 6.13226C6.20133 5.92251 6.03453 5.7657 5.84051 5.58446C5.62606 5.38353 5.38369 5.15612 5.14269 4.81264C5.05283 4.68367 4.95071 4.5289 4.84314 4.36531C4.68316 4.12229 4.42718 3.73469 4.23383 3.48624C4.1923 3.70821 4.17733 3.99263 4.16575 4.20918C4.14261 4.64362 4.12422 4.98642 3.97445 5.20296C3.80425 5.44801 3.49517 5.52336 3.16839 5.60346C2.83956 5.68356 2.46717 5.7752 2.20439 6.03248C2.00968 6.22322 1.92117 6.39428 1.77412 6.67667C1.71081 6.79818 1.63933 6.93665 1.54674 7.09889C1.54402 7.10364 1.54129 7.1084 1.53789 7.11315C1.3282 7.44373 1.21247 7.54487 1.04772 7.67249C1.00891 7.70236 0.972149 7.73087 0.929259 7.76821C0.831906 7.85306 0.744084 7.95284 0.686897 8.04448C0.622902 8.17956 0.778804 8.74366 1.06133 8.97242C1.06542 8.97582 1.07018 8.97989 1.07427 8.98328C1.18047 9.07832 1.53449 9.1204 1.81906 9.15435C2.12814 9.191 2.44743 9.22901 2.73949 9.33219C2.77081 9.34306 2.80008 9.35867 2.82663 9.37835C3.37195 9.77614 3.35901 10.6586 3.16498 11.351C3.16226 11.3598 3.15954 11.3686 3.15682 11.3768C2.98321 11.8452 2.60129 12.1846 2.32148 12.4323C2.23366 12.5104 2.1152 12.6156 2.07776 12.6659C2.0478 12.8213 2.05393 14.358 2.0798 14.8338C2.09001 15.0212 1.94568 15.1807 1.75847 15.1909C1.75234 15.1909 1.74621 15.1909 1.74008 15.1909L1.74417 15.1923Z" fill="#3F5EAB"/>
<path d="M15.6092 15.1922H15.6058C15.4179 15.1901 15.2668 15.0367 15.2688 14.8494C15.2825 13.4836 15.2899 10.2662 15.2505 9.99532C15.1994 9.77063 14.475 8.93501 13.946 8.32475C13.7071 8.04915 13.46 7.76405 13.2271 7.48574C12.9133 7.10492 12.9419 6.49467 13.2864 6.17426C13.6063 5.86676 14.2095 5.93532 14.8481 6.00795C15.1122 6.03782 15.5119 6.08331 15.616 6.04461C15.6194 6.04326 15.6208 6.04258 15.6242 6.04122C16.3016 5.77037 17.2615 4.62453 17.3187 4.02174C17.3187 4.01971 17.3187 4.01903 17.3187 4.01903C17.2792 3.95318 16.9844 3.85204 16.7897 3.78483C16.4711 3.67555 16.0749 3.53979 15.7182 3.28795C15.7011 3.27573 15.6828 3.26351 15.6623 3.24925C15.4629 3.11213 15.0496 2.82907 14.8318 2.34507C14.3239 1.41781 13.6172 1.00984 13.2605 0.809592C12.4034 0.48376 11.3066 0.865252 11.1439 0.925666C9.95592 1.63435 9.41605 2.27854 8.17428 5.07866C8.07965 5.2918 7.95098 5.57962 7.80801 5.89935C7.66641 6.21635 7.5105 6.5639 7.36141 6.89924C7.28516 7.0703 7.08433 7.14837 6.91209 7.07166C6.74053 6.99563 6.66291 6.79538 6.73916 6.62364C6.88826 6.28831 7.04416 5.94007 7.18645 5.62239C7.32873 5.30402 7.4574 5.01689 7.55203 4.80442C8.79312 2.0043 9.40447 1.168 10.8205 0.32831C10.8348 0.319485 10.8498 0.312017 10.8655 0.305908C10.9254 0.28147 12.3387 -0.284661 13.5321 0.187115C13.5464 0.192546 13.56 0.199336 13.5737 0.206803C13.9481 0.416557 14.825 0.908018 15.437 2.03349C15.4418 2.04164 15.4458 2.05046 15.4492 2.05929C15.5874 2.37426 15.887 2.57994 16.0483 2.69059C16.0735 2.70756 16.0953 2.72317 16.1137 2.73607C16.3881 2.92953 16.7189 3.04357 17.011 3.14336C17.4835 3.30559 18.0186 3.48887 17.9995 4.05025C17.9995 4.05501 17.9995 4.06043 17.9988 4.06519C17.926 4.98226 16.7271 6.32903 15.8822 6.6698C15.6365 6.77434 15.2995 6.74243 14.7712 6.6827C14.4825 6.65011 13.8814 6.58155 13.7541 6.66709C13.6819 6.73361 13.654 6.93454 13.7513 7.05265C13.9787 7.32486 14.2238 7.60724 14.4607 7.88081C15.3846 8.94655 15.8686 9.52015 15.9238 9.89757C15.9837 10.3096 15.953 14.4896 15.9489 14.8562C15.9469 15.0422 15.7958 15.1922 15.6092 15.1922Z" fill="#3F5EAB"/>
<path d="M12.1223 5.27725C11.7649 5.27725 11.4 5.19511 11.2632 5.14556C10.5041 4.87675 9.75316 4.05063 9.46791 3.40779C9.39166 3.23605 9.46927 3.0358 9.64151 2.96045C9.81307 2.88443 10.0146 2.96181 10.0908 3.13355C10.3141 3.63655 10.9309 4.30858 11.4946 4.50747C11.7336 4.59504 12.2061 4.62151 12.3606 4.57739C12.4403 4.38529 12.4675 3.63995 12.3089 3.18039C12.1434 2.70182 11.948 2.36174 11.8058 2.11397C11.7683 2.0488 11.7343 1.98975 11.7057 1.93612C11.6165 1.77117 11.6778 1.56549 11.8432 1.47588C12.0086 1.38696 12.2149 1.44805 12.3048 1.613C12.3313 1.66256 12.3626 1.71686 12.3974 1.7766C12.5533 2.04813 12.767 2.42079 12.9536 2.95977C13.136 3.48925 13.2123 4.6765 12.8583 5.04713C12.7064 5.22226 12.4178 5.27793 12.123 5.27793L12.1223 5.27725Z" fill="#3F5EAB"/>
<path d="M9.63796 13.5552H8.36079C8.17289 13.5552 8.02039 13.4031 8.02039 13.2158V12.4847H7.28717C7.09928 12.4847 6.94678 12.3326 6.94678 12.1453V10.8718C6.94678 10.6845 7.09928 10.5324 7.28717 10.5324H8.02039V9.80132C8.02039 9.61397 8.17289 9.46191 8.36079 9.46191H9.63796C9.82586 9.46191 9.97836 9.61397 9.97836 9.80132V10.5324H10.7116C10.8995 10.5324 11.052 10.6845 11.052 10.8718V12.1453C11.052 12.3326 10.8995 12.4847 10.7116 12.4847H9.97836V13.2158C9.97836 13.4031 9.82586 13.5552 9.63796 13.5552ZM8.70119 12.8764H9.29756V12.1453C9.29756 11.9579 9.45006 11.8059 9.63796 11.8059H10.3712V11.2112H9.63796C9.45006 11.2112 9.29756 11.0592 9.29756 10.8718V10.1407H8.70119V10.8718C8.70119 11.0592 8.54869 11.2112 8.36079 11.2112H7.62757V11.8059H8.36079C8.54869 11.8059 8.70119 11.9579 8.70119 12.1453V12.8764Z" fill="#3F5EAB"/>
<path d="M2.83154 7.39371C3.00197 7.39371 3.14013 7.25595 3.14013 7.08601C3.14013 6.91608 3.00197 6.77832 2.83154 6.77832C2.66111 6.77832 2.52295 6.91608 2.52295 7.08601C2.52295 7.25595 2.66111 7.39371 2.83154 7.39371Z" fill="#405FAB"/>
<path d="M14.2448 3.12355C14.4212 3.12355 14.5641 2.98101 14.5641 2.80518C14.5641 2.62935 14.4212 2.48682 14.2448 2.48682C14.0685 2.48682 13.9255 2.62935 13.9255 2.80518C13.9255 2.98101 14.0685 3.12355 14.2448 3.12355Z" fill="#405FAB"/>
</svg>
